<svg xmlns="http://www.w3.org/2000/svg" viewBox="0 0 1200 360" width="1200" height="360">
  <style>
    @import url('https://fonts.googleapis.com/css2?family=Roboto+Mono:wght@400;500;600&amp;display=swap');
  </style>
  <rect x="28.0" y="48.0" width="127.0" height="56.0" rx="4" fill="#20262c" stroke="#353d42" stroke-width="2"/>
  <text x="91.5" y="76.0" font-family="Roboto Mono, Courier, monospace" font-size="14" fill="#ffffff" text-anchor="middle" font-weight="500" dominant-baseline="middle">User Prompt</text>
  <rect x="195.0" y="48.0" width="136.0" height="56.0" rx="4" fill="#1a3a5c" stroke="#637bff" stroke-width="2"/>
  <text x="263.0" y="76.0" font-family="Roboto Mono, Courier, monospace" font-size="14" fill="#ffffff" text-anchor="middle" font-weight="500" dominant-baseline="middle">Tokenization</text>
  <rect x="371.0" y="48.0" width="96.0" height="56.0" rx="4" fill="#1a3a5c" stroke="#637bff" stroke-width="2"/>
  <text x="419.0" y="76.0" font-family="Roboto Mono, Courier, monospace" font-size="14" fill="#ffffff" text-anchor="middle" font-weight="500" dominant-baseline="middle">Prefill</text>
  <rect x="507.0" y="28.0" width="96.0" height="96.0" rx="4" fill="#1b2025" stroke="#353d42" stroke-width="2"/>
  <text x="555.0" y="44.0" font-family="Roboto Mono, Courier, monospace" font-size="13" fill="#ffffff" text-anchor="middle" font-weight="500" dominant-baseline="middle">Decode</text>
  <rect x="535.0" y="70.0" width="40.0" height="28.0" rx="4" fill="#637bff" stroke="#637bff" stroke-width="2"/>
  <text x="555.0" y="84.0" font-family="Roboto Mono, Courier, monospace" font-size="13" fill="#ffffff" text-anchor="middle" font-weight="600" dominant-baseline="middle">T0</text>
  <rect x="643.0" y="48.0" width="153.0" height="56.0" rx="4" fill="#1a3a5c" stroke="#637bff" stroke-width="2"/>
  <text x="719.5" y="76.0" font-family="Roboto Mono, Courier, monospace" font-size="14" fill="#ffffff" text-anchor="middle" font-weight="500" dominant-baseline="middle">Detokenization</text>
  <rect x="836.0" y="48.0" width="188.0" height="56.0" rx="4" fill="#1a3a5c" stroke="#637bff" stroke-width="2"/>
  <text x="930.0" y="76.0" font-family="Roboto Mono, Courier, monospace" font-size="14" fill="#ffffff" text-anchor="middle" font-weight="500" dominant-baseline="middle">First Output Token</text>
  <line x1="155.0" y1="76.0" x2="189.0" y2="76.0" stroke="#637bff" stroke-width="2"/><polygon points="195.0,76.0 186.0,70.0 186.0,82.0" fill="#637bff"/>
  <line x1="331.0" y1="76.0" x2="365.0" y2="76.0" stroke="#637bff" stroke-width="2"/><polygon points="371.0,76.0 362.0,70.0 362.0,82.0" fill="#637bff"/>
  <line x1="467.0" y1="76.0" x2="501.0" y2="76.0" stroke="#637bff" stroke-width="2"/><polygon points="507.0,76.0 498.0,70.0 498.0,82.0" fill="#637bff"/>
  <line x1="603.0" y1="76.0" x2="637.0" y2="76.0" stroke="#637bff" stroke-width="2"/><polygon points="643.0,76.0 634.0,70.0 634.0,82.0" fill="#637bff"/>
  <line x1="796.0" y1="76.0" x2="830.0" y2="76.0" stroke="#637bff" stroke-width="2"/><polygon points="836.0,76.0 827.0,70.0 827.0,82.0" fill="#637bff"/>
  <line x1="28" y1="142" x2="1024" y2="142" stroke="#9a9eaa" stroke-width="1.5"/>
  <line x1="28" y1="142" x2="28" y2="134" stroke="#9a9eaa" stroke-width="1.5"/>
  <line x1="1024" y1="142" x2="1024" y2="134" stroke="#9a9eaa" stroke-width="1.5"/>
  <text x="526.0" y="160.0" font-family="Roboto Mono, Courier, monospace" font-size="14" fill="#9a9eaa" text-anchor="middle" font-weight="500" dominant-baseline="middle">Time to First Token (TTFT)</text>
  <rect x="28.0" y="208.0" width="127.0" height="56.0" rx="4" fill="#20262c" stroke="#353d42" stroke-width="2"/>
  <text x="91.5" y="236.0" font-family="Roboto Mono, Courier, monospace" font-size="14" fill="#ffffff" text-anchor="middle" font-weight="500" dominant-baseline="middle">User Prompt</text>
  <rect x="195.0" y="208.0" width="136.0" height="56.0" rx="4" fill="#1a3a5c" stroke="#637bff" stroke-width="2"/>
  <text x="263.0" y="236.0" font-family="Roboto Mono, Courier, monospace" font-size="14" fill="#ffffff" text-anchor="middle" font-weight="500" dominant-baseline="middle">Tokenization</text>
  <rect x="371.0" y="208.0" width="96.0" height="56.0" rx="4" fill="#1a3a5c" stroke="#637bff" stroke-width="2"/>
  <text x="419.0" y="236.0" font-family="Roboto Mono, Courier, monospace" font-size="14" fill="#ffffff" text-anchor="middle" font-weight="500" dominant-baseline="middle">Prefill</text>
  <rect x="507.0" y="188.0" width="244.0" height="96.0" rx="4" fill="#1b2025" stroke="#353d42" stroke-width="2"/>
  <text x="629.0" y="204.0" font-family="Roboto Mono, Courier, monospace" font-size="13" fill="#ffffff" text-anchor="middle" font-weight="500" dominant-baseline="middle">Decode</text>
  <rect x="525.0" y="224.0" width="40.0" height="28.0" rx="4" fill="#637bff" stroke="#637bff" stroke-width="2"/>
  <text x="545.0" y="238.0" font-family="Roboto Mono, Courier, monospace" font-size="13" fill="#ffffff" text-anchor="middle" font-weight="600" dominant-baseline="middle">T0</text>
  <rect x="581.0" y="224.0" width="40.0" height="28.0" rx="4" fill="#637bff" stroke="#637bff" stroke-width="2"/>
  <text x="601.0" y="238.0" font-family="Roboto Mono, Courier, monospace" font-size="13" fill="#ffffff" text-anchor="middle" font-weight="600" dominant-baseline="middle">T1</text>
  <rect x="637.0" y="224.0" width="40.0" height="28.0" rx="4" fill="#637bff" stroke="#637bff" stroke-width="2"/>
  <text x="657.0" y="238.0" font-family="Roboto Mono, Courier, monospace" font-size="13" fill="#ffffff" text-anchor="middle" font-weight="600" dominant-baseline="middle">T2</text>
  <rect x="693.0" y="224.0" width="40.0" height="28.0" rx="4" fill="#637bff" stroke="#637bff" stroke-width="2"/>
  <text x="713.0" y="238.0" font-family="Roboto Mono, Courier, monospace" font-size="13" fill="#ffffff" text-anchor="middle" font-weight="600" dominant-baseline="middle">T3</text>
  <line x1="565.0" y1="238.0" x2="577.0" y2="238.0" stroke="#637bff" stroke-width="1.5"/><polygon points="581.0,238.0 575.0,234.0 575.0,242.0" fill="#637bff"/>
  <line x1="621.0" y1="238.0" x2="633.0" y2="238.0" stroke="#637bff" stroke-width="1.5"/><polygon points="637.0,238.0 631.0,234.0 631.0,242.0" fill="#637bff"/>
  <line x1="677.0" y1="238.0" x2="689.0" y2="238.0" stroke="#637bff" stroke-width="1.5"/><polygon points="693.0,238.0 687.0,234.0 687.0,242.0" fill="#637bff"/>
  <line x1="573.0" y1="238.0" x2="573.0" y2="253.0" stroke="#637bff" stroke-width="1.5"/><polygon points="573.0,257.0 569.0,251.0 577.0,251.0" fill="#637bff"/>
  <line x1="629.0" y1="238.0" x2="629.0" y2="253.0" stroke="#637bff" stroke-width="1.5"/><polygon points="629.0,257.0 625.0,251.0 633.0,251.0" fill="#637bff"/>
  <line x1="685.0" y1="238.0" x2="685.0" y2="253.0" stroke="#637bff" stroke-width="1.5"/><polygon points="685.0,257.0 681.0,251.0 689.0,251.0" fill="#637bff"/>
  <text x="629.0" y="268.0" font-family="Roboto Mono, Courier, monospace" font-size="11" fill="#9a9eaa" text-anchor="middle" font-weight="500" dominant-baseline="middle">Inter Token Latency (ITL)</text>
  <rect x="791.0" y="208.0" width="153.0" height="56.0" rx="4" fill="#1a3a5c" stroke="#637bff" stroke-width="2"/>
  <text x="867.5" y="236.0" font-family="Roboto Mono, Courier, monospace" font-size="14" fill="#ffffff" text-anchor="middle" font-weight="500" dominant-baseline="middle">Detokenization</text>
  <rect x="984.0" y="208.0" width="188.0" height="56.0" rx="4" fill="#1a3a5c" stroke="#637bff" stroke-width="2"/>
  <text x="1078.0" y="236.0" font-family="Roboto Mono, Courier, monospace" font-size="14" fill="#ffffff" text-anchor="middle" font-weight="500" dominant-baseline="middle">Final Output Token</text>
  <line x1="155.0" y1="236.0" x2="189.0" y2="236.0" stroke="#637bff" stroke-width="2"/><polygon points="195.0,236.0 186.0,230.0 186.0,242.0" fill="#637bff"/>
  <line x1="331.0" y1="236.0" x2="365.0" y2="236.0" stroke="#637bff" stroke-width="2"/><polygon points="371.0,236.0 362.0,230.0 362.0,242.0" fill="#637bff"/>
  <line x1="467.0" y1="236.0" x2="501.0" y2="236.0" stroke="#637bff" stroke-width="2"/><polygon points="507.0,236.0 498.0,230.0 498.0,242.0" fill="#637bff"/>
  <line x1="751.0" y1="236.0" x2="785.0" y2="236.0" stroke="#637bff" stroke-width="2"/><polygon points="791.0,236.0 782.0,230.0 782.0,242.0" fill="#637bff"/>
  <line x1="944.0" y1="236.0" x2="978.0" y2="236.0" stroke="#637bff" stroke-width="2"/><polygon points="984.0,236.0 975.0,230.0 975.0,242.0" fill="#637bff"/>
  <line x1="28" y1="302" x2="1172" y2="302" stroke="#9a9eaa" stroke-width="1.5"/>
  <line x1="28" y1="302" x2="28" y2="294" stroke="#9a9eaa" stroke-width="1.5"/>
  <line x1="1172" y1="302" x2="1172" y2="294" stroke="#9a9eaa" stroke-width="1.5"/>
  <text x="600.0" y="320.0" font-family="Roboto Mono, Courier, monospace" font-size="14" fill="#9a9eaa" text-anchor="middle" font-weight="500" dominant-baseline="middle">End-to-End Latency</text>
  <text x="28.0" y="340.0" font-family="Roboto Mono, Courier, monospace" font-size="11" fill="#9a9eaa" text-anchor="start" font-weight="400" dominant-baseline="middle">Note: Detokenization happens after each decode step. Each token is detokenized and output sequentially.</text>
</svg>
