<svg xmlns="http://www.w3.org/2000/svg" viewBox="0 0 958 140" width="958" height="140">
  <style>
    @import url('https://fonts.googleapis.com/css2?family=Roboto+Mono:wght@400;500;600&amp;display=swap');
  </style>
  <text x="479.0" y="24.0" font-family="Roboto Mono, Courier, monospace" font-size="16" fill="#ffffff" text-anchor="middle" font-weight="600" dominant-baseline="middle">Static Batching</text>
  <rect x="28.0" y="42.0" width="274.0" height="50.0" rx="4" fill="#1b2025" stroke="#353d42" stroke-width="2"/>
  <rect x="38.0" y="50.0" width="46.0" height="34.0" rx="4" fill="#637bff" stroke="#637bff" stroke-width="2"/>
  <text x="61.0" y="67.0" font-family="Roboto Mono, Courier, monospace" font-size="12" fill="#ffffff" text-anchor="middle" font-weight="600" dominant-baseline="middle">R1</text>
  <rect x="92.0" y="50.0" width="46.0" height="34.0" rx="4" fill="#637bff" stroke="#637bff" stroke-width="2"/>
  <text x="115.0" y="67.0" font-family="Roboto Mono, Courier, monospace" font-size="12" fill="#ffffff" text-anchor="middle" font-weight="600" dominant-baseline="middle">R2</text>
  <rect x="146.0" y="50.0" width="92.0" height="34.0" rx="4" fill="#637bff" stroke="#637bff" stroke-width="2"/>
  <text x="192.0" y="67.0" font-family="Roboto Mono, Courier, monospace" font-size="12" fill="#ffffff" text-anchor="middle" font-weight="600" dominant-baseline="middle">R3</text>
  <rect x="246.0" y="50.0" width="46.0" height="34.0" rx="4" fill="#637bff" stroke="#637bff" stroke-width="2"/>
  <text x="269.0" y="67.0" font-family="Roboto Mono, Courier, monospace" font-size="12" fill="#ffffff" text-anchor="middle" font-weight="600" dominant-baseline="middle">R4</text>
  <rect x="342.0" y="42.0" width="274.0" height="50.0" rx="4" fill="#1b2025" stroke="#353d42" stroke-width="2"/>
  <rect x="352.0" y="50.0" width="46.0" height="34.0" rx="4" fill="#637bff" stroke="#637bff" stroke-width="2"/>
  <text x="375.0" y="67.0" font-family="Roboto Mono, Courier, monospace" font-size="12" fill="#ffffff" text-anchor="middle" font-weight="600" dominant-baseline="middle">R1</text>
  <rect x="406.0" y="50.0" width="46.0" height="34.0" rx="4" fill="#637bff" stroke="#637bff" stroke-width="2"/>
  <text x="429.0" y="67.0" font-family="Roboto Mono, Courier, monospace" font-size="12" fill="#ffffff" text-anchor="middle" font-weight="600" dominant-baseline="middle">R2</text>
  <rect x="460.0" y="50.0" width="92.0" height="34.0" rx="4" fill="#637bff" stroke="#637bff" stroke-width="2"/>
  <text x="506.0" y="67.0" font-family="Roboto Mono, Courier, monospace" font-size="12" fill="#ffffff" text-anchor="middle" font-weight="600" dominant-baseline="middle">R3</text>
  <rect x="560.0" y="50.0" width="46.0" height="34.0" rx="4" fill="#637bff" stroke="#637bff" stroke-width="2"/>
  <text x="583.0" y="67.0" font-family="Roboto Mono, Courier, monospace" font-size="12" fill="#ffffff" text-anchor="middle" font-weight="600" dominant-baseline="middle">R4</text>
  <rect x="656.0" y="42.0" width="274.0" height="50.0" rx="4" fill="#1b2025" stroke="#353d42" stroke-width="2"/>
  <rect x="666.0" y="50.0" width="46.0" height="34.0" rx="4" fill="#637bff" stroke="#637bff" stroke-width="2"/>
  <text x="689.0" y="67.0" font-family="Roboto Mono, Courier, monospace" font-size="12" fill="#ffffff" text-anchor="middle" font-weight="600" dominant-baseline="middle">R1</text>
  <rect x="720.0" y="50.0" width="46.0" height="34.0" rx="4" fill="#637bff" stroke="#637bff" stroke-width="2"/>
  <text x="743.0" y="67.0" font-family="Roboto Mono, Courier, monospace" font-size="12" fill="#ffffff" text-anchor="middle" font-weight="600" dominant-baseline="middle">R2</text>
  <rect x="774.0" y="50.0" width="92.0" height="34.0" rx="4" fill="#637bff" stroke="#637bff" stroke-width="2"/>
  <text x="820.0" y="67.0" font-family="Roboto Mono, Courier, monospace" font-size="12" fill="#ffffff" text-anchor="middle" font-weight="600" dominant-baseline="middle">R3</text>
  <rect x="874.0" y="50.0" width="46.0" height="34.0" rx="4" fill="#637bff" stroke="#637bff" stroke-width="2"/>
  <text x="897.0" y="67.0" font-family="Roboto Mono, Courier, monospace" font-size="12" fill="#ffffff" text-anchor="middle" font-weight="600" dominant-baseline="middle">R4</text>
  <line x1="28.0" y1="110.0" x2="924.0" y2="110.0" stroke="#9a9eaa" stroke-width="1.5"/><polygon points="930.0,110.0 921.0,104.0 921.0,116.0" fill="#9a9eaa"/>
  <text x="930.0" y="126.0" font-family="Roboto Mono, Courier, monospace" font-size="12" fill="#9a9eaa" text-anchor="end" font-weight="500" dominant-baseline="middle">Time</text>
</svg>